<svg xmlns="http://www.w3.org/2000/svg" viewBox="0 -0.5 21 21" shape-rendering="crispEdges">
<path stroke="#a7bced" d="M1 0h1M0 1h1" />
<path stroke="#f4f6fd" d="M2 0h1M18 0h1M0 2h1M20 2h1M0 18h1M20 18h1M2 20h1M18 20h1" />
<path stroke="#ffffff" d="M3 0h15M0 3h1M20 3h1M0 4h1M20 4h1M0 5h1M20 5h1M0 6h1M20 6h1M0 7h1M20 7h1M0 8h1M20 8h1M0 9h1M20 9h1M0 10h1M20 10h1M0 11h1M20 11h1M0 12h1M20 12h1M0 13h1M20 13h1M0 14h1M20 14h1M0 15h1M20 15h1M0 16h1M20 16h1M0 17h1M20 17h1M3 20h15" />
<path stroke="#a7baec" d="M19 0h1M20 1h1" />
<path stroke="#dad2d0" d="M1 1h1" />
<path stroke="#643529" d="M2 1h1M1 2h1" />
<path stroke="#5a1d0d" d="M3 1h1" />
<path stroke="#5d1e0d" d="M4 1h1" />
<path stroke="#5f1e0e" d="M5 1h1" />
<path stroke="#63200e" d="M6 1h1" />
<path stroke="#68210f" d="M7 1h1" />
<path stroke="#6f2310" d="M8 1h1" />
<path stroke="#732511" d="M9 1h1" />
<path stroke="#752511" d="M10 1h1M1 10h1" />
<path stroke="#7c2712" d="M11 1h1" />
<path stroke="#822912" d="M12 1h1M5 2h1" />
<path stroke="#852a13" d="M13 1h1M2 5h1M1 13h1" />
<path stroke="#892b13" d="M14 1h1" />
<path stroke="#8a2b14" d="M15 1h1M6 2h1" />
<path stroke="#8e2d14" d="M16 1h1M7 2h1" />
<path stroke="#8c2c14" d="M17 1h1M2 6h1" />
<path stroke="#9d4732" d="M18 1h1M1 18h1" />
<path stroke="#ebd8d3" d="M19 1h1" />
<path stroke="#69220f" d="M2 2h1" />
<path stroke="#782611" d="M3 2h1" />
<path stroke="#7e2812" d="M4 2h1" />
<path stroke="#932e15" d="M8 2h1" />
<path stroke="#9a3016" d="M9 2h1" />
<path stroke="#9c3116" d="M10 2h1" />
<path stroke="#a03217" d="M11 2h1" />
<path stroke="#a43418" d="M12 2h1" />
<path stroke="#a73518" d="M13 2h1" />
<path stroke="#aa3618" d="M14 2h1M2 14h1" />
<path stroke="#ab3618" d="M15 2h1" />
<path stroke="#ad3719" d="M16 2h1M18 2h1M2 16h1M2 17h1" />
<path stroke="#ac3618" d="M17 2h1" />
<path stroke="#b24e35" d="M19 2h1" />
<path stroke="#591c0d" d="M1 3h1M1 4h1" />
<path stroke="#792711" d="M2 3h1" />
<path stroke="#8d2c14" d="M3 3h1" />
<path stroke="#962e15" d="M4 3h1" />
<path stroke="#9a2f16" d="M5 3h1" />
<path stroke="#a13117" d="M6 3h1" />
<path stroke="#a63317" d="M7 3h1" />
<path stroke="#aa3418" d="M8 3h1" />
<path stroke="#af3619" d="M9 3h1" />
<path stroke="#b23719" d="M10 3h1M8 4h1M4 8h1" />
<path stroke="#b5391a" d="M11 3h1" />
<path stroke="#b73a1b" d="M12 3h1" />
<path stroke="#b93b1b" d="M13 3h1" />
<path stroke="#ba3b1b" d="M14 3h2M19 3h1M3 13h1M3 14h1M3 19h1" />
<path stroke="#bb3b1b" d="M16 3h3M3 15h1" />
<path stroke="#802812" d="M2 4h1M1 12h1" />
<path stroke="#962f15" d="M3 4h1" />
<path stroke="#9e3016" d="M4 4h1" />
<path stroke="#a43216" d="M5 4h1" />
<path stroke="#aa3317" d="M6 4h1M4 6h1" />
<path stroke="#ae3518" d="M7 4h1" />
<path stroke="#b5381a" d="M9 4h1M4 9h1" />
<path stroke="#b8391a" d="M10 4h1M4 10h1" />
<path stroke="#ba3a1b" d="M11 4h1M4 11h2" />
<path stroke="#bc3b1c" d="M12 4h1M4 12h1" />
<path stroke="#bd3c1c" d="M13 4h1M13 5h1M12 6h1M6 12h1M4 13h2" />
<path stroke="#be3d1c" d="M14 4h3M16 5h1M16 6h1M4 14h1M4 15h1M4 16h2" />
<path stroke="#bf3d1c" d="M17 4h3M17 5h3M18 6h2M19 7h1M4 17h2M4 18h4M4 19h4" />
<path stroke="#5b1d0d" d="M1 5h1" />
<path stroke="#9c3016" d="M3 5h1" />
<path stroke="#a43217" d="M4 5h1" />
<path stroke="#b8553e" d="M5 5h1" />
<path stroke="#d59485" d="M6 5h1M5 6h1" />
<path stroke="#b33619" d="M7 5h1" />
<path stroke="#b53719" d="M8 5h1" />
<path stroke="#b8381a" d="M9 5h1M6 8h1" />
<path stroke="#b9391b" d="M10 5h1" />
<path stroke="#ba391b" d="M11 5h1M6 9h1M5 10h1" />
<path stroke="#bc3b1b" d="M12 5h1M11 6h1M6 11h1M5 12h1" />
<path stroke="#dc9887" d="M14 5h1" />
<path stroke="#c85d42" d="M15 5h1M5 15h1" />
<path stroke="#611f0e" d="M1 6h1" />
<path stroke="#a23217" d="M3 6h1" />
<path stroke="#d79585" d="M6 6h1" />
<path stroke="#d89585" d="M7 6h1" />
<path stroke="#b8371a" d="M8 6h1" />
<path stroke="#ba391a" d="M9 6h1" />
<path stroke="#bb3a1b" d="M10 6h1M6 10h1" />
<path stroke="#dd9887" d="M13 6h3M12 7h1M11 8h1M9 9h1M8 11h1M7 12h1M6 13h1M5 14h2" />
<path stroke="#c03e1d" d="M17 6h1M16 7h3M19 8h1M19 9h1M7 16h1M6 17h2M8 18h1" />
<path stroke="#65200e" d="M1 7h1" />
<path stroke="#902d15" d="M2 7h1" />
<path stroke="#a73418" d="M3 7h1" />
<path stroke="#af3518" d="M4 7h1" />
<path stroke="#b43619" d="M5 7h1" />
<path stroke="#d99585" d="M6 7h1" />
<path stroke="#da9686" d="M7 7h1" />
<path stroke="#db9686" d="M8 7h1M7 8h1" />
<path stroke="#bc3a1b" d="M9 7h1M7 9h1" />
<path stroke="#bd3b1b" d="M10 7h1M7 10h1" />
<path stroke="#be3c1c" d="M11 7h1M10 8h1M8 10h1M7 11h1" />
<path stroke="#de9987" d="M13 7h2M12 8h2M10 9h2M9 10h1M8 12h1M7 14h1" />
<path stroke="#c03f1d" d="M15 7h1M7 15h1" />
<path stroke="#6a220f" d="M1 8h1" />
<path stroke="#952f15" d="M2 8h1" />
<path stroke="#ac3518" d="M3 8h1" />
<path stroke="#b63719" d="M5 8h1" />
<path stroke="#dc9786" d="M8 8h2M8 9h1" />
<path stroke="#c2401d" d="M14 8h1M17 8h1M19 11h1M8 14h1M8 16h1M8 17h1M9 18h1M11 19h1" />
<path stroke="#c2401e" d="M15 8h2M18 9h1M8 15h1" />
<path stroke="#c13f1d" d="M18 8h1M19 10h1M9 19h2" />
<path stroke="#702410" d="M1 9h1" />
<path stroke="#9b3016" d="M2 9h1" />
<path stroke="#b03619" d="M3 9h1" />
<path stroke="#b9381a" d="M5 9h1" />
<path stroke="#df9a88" d="M12 9h1M11 10h1M10 11h1M9 12h1" />
<path stroke="#c4421e" d="M13 9h1M16 9h2M18 10h1M9 13h1M19 14h1M19 15h1M9 16h1M19 16h1M9 17h1M10 18h1M14 19h3" />
<path stroke="#c5431e" d="M14 9h1" />
<path stroke="#c5431f" d="M15 9h1M12 10h1M18 11h1M10 12h1M9 14h1M9 15h1M10 17h1M11 18h1M18 18h1" />
<path stroke="#9e3217" d="M2 10h1" />
<path stroke="#b4381a" d="M3 10h1" />
<path stroke="#df9a87" d="M10 10h1M9 11h1M8 13h1" />
<path stroke="#c6441f" d="M13 10h1M17 10h1M10 13h1M10 16h1" />
<path stroke="#c74520" d="M14 10h2M10 14h1M10 15h1M18 17h1M12 18h1M17 18h1" />
<path stroke="#c7451f" d="M16 10h1M18 12h1" />
<path stroke="#7b2711" d="M1 11h1" />
<path stroke="#a13217" d="M2 11h1" />
<path stroke="#b7391a" d="M3 11h1" />
<path stroke="#e09b88" d="M11 11h1" />
<path stroke="#e29d89" d="M12 11h1" />
<path stroke="#c94621" d="M13 11h1M11 13h1" />
<path stroke="#ca4721" d="M14 11h1M17 12h1M11 14h1M11 15h1M12 17h1M15 18h1" />
<path stroke="#ca4821" d="M15 11h1M17 17h1" />
<path stroke="#c94620" d="M16 11h1M18 14h1M11 16h1M18 16h1" />
<path stroke="#c84620" d="M17 11h1M18 13h1" />
<path stroke="#a53418" d="M2 12h1" />
<path stroke="#b83a1b" d="M3 12h1" />
<path stroke="#e19d89" d="M11 12h1" />
<path stroke="#e39e89" d="M12 12h1" />
<path stroke="#e0947c" d="M13 12h1" />
<path stroke="#cc4a22" d="M14 12h1M12 14h1M17 14h1M12 15h1" />
<path stroke="#cd4a22" d="M15 12h1M16 13h1M17 15h1M13 16h1M15 17h1" />
<path stroke="#cb4922" d="M16 12h1M17 13h1M13 17h1" />
<path stroke="#c3411e" d="M19 12h1M19 13h1M19 17h1M12 19h2M17 19h1" />
<path stroke="#a93618" d="M2 13h1" />
<path stroke="#dd9987" d="M7 13h1M6 15h1" />
<path stroke="#e39f8a" d="M12 13h1" />
<path stroke="#e59f8b" d="M13 13h1" />
<path stroke="#e5a08b" d="M14 13h1M13 14h1" />
<path stroke="#ce4c23" d="M15 13h1M16 16h1" />
<path stroke="#882b13" d="M1 14h1" />
<path stroke="#e6a08b" d="M14 14h1" />
<path stroke="#e6a18b" d="M15 14h1M14 15h1" />
<path stroke="#ce4b23" d="M16 14h1M13 15h1" />
<path stroke="#8b2c14" d="M1 15h1M1 16h1" />
<path stroke="#ac3619" d="M2 15h1" />
<path stroke="#d76b48" d="M15 15h1" />
<path stroke="#cf4c23" d="M16 15h1M15 16h1" />
<path stroke="#c94721" d="M18 15h1M16 18h1" />
<path stroke="#bb3c1b" d="M3 16h1" />
<path stroke="#bf3e1d" d="M6 16h1" />
<path stroke="#cb4821" d="M12 16h1" />
<path stroke="#cd4b23" d="M14 16h1" />
<path stroke="#cc4922" d="M17 16h1M14 17h1M16 17h1" />
<path stroke="#8d2d14" d="M1 17h1" />
<path stroke="#bc3c1b" d="M3 17h1M3 18h1" />
<path stroke="#c84520" d="M11 17h1M13 18h1" />
<path stroke="#ae3719" d="M2 18h1" />
<path stroke="#c94720" d="M14 18h1" />
<path stroke="#c95839" d="M19 18h1" />
<path stroke="#a7bdf0" d="M0 19h1M1 20h1" />
<path stroke="#ead7d3" d="M1 19h1" />
<path stroke="#b34e35" d="M2 19h1" />
<path stroke="#c03e1c" d="M8 19h1" />
<path stroke="#c9583a" d="M18 19h1" />
<path stroke="#f3dbd4" d="M19 19h1" />
<path stroke="#a7bcef" d="M20 19h1M19 20h1" />
</svg>