<svg xmlns="http://www.w3.org/2000/svg" viewBox="0 -0.5 21 21" shape-rendering="crispEdges">
<path stroke="#b3c4ef" d="M1 0h1M19 0h1M0 1h1M20 1h1M0 19h1M20 19h1M1 20h1M19 20h1" />
<path stroke="#f4f6fd" d="M2 0h1M20 2h1M0 18h1M18 20h1" />
<path stroke="#ffffff" d="M3 0h16M0 2h1M0 3h1M20 3h1M0 4h1M20 4h1M0 5h1M6 5h1M14 5h1M20 5h1M0 6h1M5 6h3M13 6h3M20 6h1M0 7h1M6 7h3M12 7h3M20 7h1M0 8h1M7 8h3M11 8h3M20 8h1M0 9h1M8 9h5M20 9h1M0 10h1M9 10h3M20 10h1M0 11h1M8 11h5M20 11h1M0 12h1M7 12h3M11 12h2M20 12h1M0 13h1M6 13h3M12 13h3M20 13h1M0 14h1M5 14h3M13 14h3M20 14h1M0 15h1M6 15h1M14 15h1M20 15h1M0 16h1M20 16h1M0 17h1M20 17h1M20 18h1M2 20h16" />
<path stroke="#fae1dc" d="M1 1h1" />
<path stroke="#eb8b73" d="M2 1h1" />
<path stroke="#e97b60" d="M3 1h1" />
<path stroke="#e77155" d="M4 1h1" />
<path stroke="#e66a4d" d="M5 1h1M1 6h1M7 10h1" />
<path stroke="#e56648" d="M6 1h1" />
<path stroke="#e46142" d="M7 1h1" />
<path stroke="#e46344" d="M8 1h1M14 4h1M2 12h1" />
<path stroke="#e45f3e" d="M9 1h2" />
<path stroke="#e35c3b" d="M11 1h2" />
<path stroke="#e25633" d="M13 1h2" />
<path stroke="#e25330" d="M15 1h1" />
<path stroke="#e04d28" d="M16 1h1" />
<path stroke="#dc451f" d="M17 1h1" />
<path stroke="#d05334" d="M18 1h1" />
<path stroke="#efd8d2" d="M19 1h1" />
<path stroke="#ec8d76" d="M1 2h1" />
<path stroke="#efa390" d="M2 2h1" />
<path stroke="#f0a694" d="M3 2h1" />
<path stroke="#ee9a85" d="M4 2h1" />
<path stroke="#eb8d75" d="M5 2h1" />
<path stroke="#ea876e" d="M6 2h1" />
<path stroke="#ea8168" d="M7 2h1" />
<path stroke="#e97f66" d="M8 2h1" />
<path stroke="#e97c62" d="M9 2h1M10 3h1" />
<path stroke="#e8795f" d="M10 2h1" />
<path stroke="#e8795e" d="M11 2h1" />
<path stroke="#e87559" d="M12 2h1" />
<path stroke="#e77256" d="M13 2h1" />
<path stroke="#e66e50" d="M14 2h1" />
<path stroke="#e56849" d="M15 2h1" />
<path stroke="#e4603f" d="M16 2h1M15 4h1" />
<path stroke="#e05532" d="M17 2h1" />
<path stroke="#d04623" d="M18 2h1" />
<path stroke="#b64b30" d="M19 2h1" />
<path stroke="#e97f65" d="M1 3h1" />
<path stroke="#f0a997" d="M2 3h1" />
<path stroke="#f1ac9a" d="M3 3h1" />
<path stroke="#ee9d89" d="M4 3h1M2 4h1" />
<path stroke="#ec917a" d="M5 3h1" />
<path stroke="#eb8b72" d="M6 3h1" />
<path stroke="#ea856d" d="M7 3h1" />
<path stroke="#e98168" d="M8 3h1M2 7h1" />
<path stroke="#e87e65" d="M9 3h1" />
<path stroke="#e97b61" d="M11 3h1" />
<path stroke="#e8775d" d="M12 3h1M3 9h1" />
<path stroke="#e87459" d="M13 3h1M2 9h1" />
<path stroke="#e66f52" d="M14 3h1" />
<path stroke="#e56a4c" d="M15 3h1" />
<path stroke="#e46343" d="M16 3h1" />
<path stroke="#e15937" d="M17 3h1" />
<path stroke="#d24a28" d="M18 3h1" />
<path stroke="#aa3315" d="M19 3h1" />
<path stroke="#e87458" d="M1 4h1" />
<path stroke="#efa18d" d="M3 4h1" />
<path stroke="#ed957f" d="M4 4h1" />
<path stroke="#eb8a71" d="M5 4h1M4 5h1" />
<path stroke="#ea836a" d="M6 4h1M4 6h1M3 7h1" />
<path stroke="#e97d64" d="M7 4h1" />
<path stroke="#e8785e" d="M8 4h1" />
<path stroke="#e77359" d="M9 4h1" />
<path stroke="#e76f54" d="M10 4h1" />
<path stroke="#e66d51" d="M11 4h1" />
<path stroke="#e5684b" d="M12 4h1" />
<path stroke="#e5684a" d="M13 4h1" />
<path stroke="#e35c3a" d="M16 4h1M10 8h1M3 15h1" />
<path stroke="#e05634" d="M17 4h1" />
<path stroke="#d24c2a" d="M18 4h1" />
<path stroke="#ac3618" d="M19 4h1" />
<path stroke="#e76f52" d="M1 5h1M6 11h1M4 12h1" />
<path stroke="#ec9179" d="M2 5h1" />
<path stroke="#ec937c" d="M3 5h1" />
<path stroke="#f7ccc2" d="M5 5h1" />
<path stroke="#e77259" d="M7 5h1M5 9h1" />
<path stroke="#e76d53" d="M8 5h1" />
<path stroke="#e5684d" d="M9 5h1M8 6h1" />
<path stroke="#e46446" d="M10 5h1" />
<path stroke="#e45f41" d="M11 5h1" />
<path stroke="#e35b3a" d="M12 5h1M11 6h1" />
<path stroke="#e35938" d="M13 5h1" />
<path stroke="#f3bbad" d="M15 5h1" />
<path stroke="#e25531" d="M16 5h1" />
<path stroke="#df5330" d="M17 5h1" />
<path stroke="#d34e2c" d="M18 5h1" />
<path stroke="#ad3a1d" d="M19 5h1M19 6h1" />
<path stroke="#eb876e" d="M2 6h1" />
<path stroke="#eb8a70" d="M3 6h1" />
<path stroke="#e46447" d="M9 6h1" />
<path stroke="#e45f40" d="M10 6h1" />
<path stroke="#e25634" d="M12 6h1" />
<path stroke="#e2522d" d="M16 6h1" />
<path stroke="#df522e" d="M17 6h1" />
<path stroke="#d34d2c" d="M18 6h1" />
<path stroke="#e56546" d="M1 7h1M1 8h1" />
<path stroke="#e97e65" d="M4 7h1" />
<path stroke="#e8775e" d="M5 7h1" />
<path stroke="#e46143" d="M9 7h1" />
<path stroke="#e45d3d" d="M10 7h1" />
<path stroke="#e35836" d="M11 7h1" />
<path stroke="#e24e27" d="M15 7h1" />
<path stroke="#e2502a" d="M16 7h1" />
<path stroke="#e0512c" d="M17 7h1" />
<path stroke="#d34d2a" d="M18 7h1" />
<path stroke="#ad391c" d="M19 7h1" />
<path stroke="#e87a60" d="M2 8h1M4 8h1" />
<path stroke="#e87c62" d="M3 8h1" />
<path stroke="#e8745b" d="M5 8h1" />
<path stroke="#e76e54" d="M6 8h1" />
<path stroke="#e24d24" d="M14 8h1" />
<path stroke="#e24b22" d="M15 8h1" />
<path stroke="#e24d25" d="M16 8h1" />
<path stroke="#e05029" d="M17 8h1" />
<path stroke="#d44c29" d="M18 8h1" />
<path stroke="#ae391b" d="M19 8h1" />
<path stroke="#e35d3c" d="M1 9h1" />
<path stroke="#e8765d" d="M4 9h1" />
<path stroke="#e66f53" d="M6 9h1" />
<path stroke="#e56b4e" d="M7 9h1" />
<path stroke="#e45127" d="M13 9h1" />
<path stroke="#e44f23" d="M14 9h1" />
<path stroke="#e34c20" d="M15 9h1" />
<path stroke="#e34d22" d="M16 9h1" />
<path stroke="#e14f25" d="M17 9h1" />
<path stroke="#d54a25" d="M18 9h1" />
<path stroke="#af3719" d="M19 9h1" />
<path stroke="#e35937" d="M1 10h1" />
<path stroke="#e76d51" d="M2 10h1" />
<path stroke="#e87257" d="M3 10h1" />
<path stroke="#e87359" d="M4 10h1" />
<path stroke="#e77157" d="M5 10h1" />
<path stroke="#e66e52" d="M6 10h1" />
<path stroke="#e56747" d="M8 10h1" />
<path stroke="#e5572c" d="M12 10h1" />
<path stroke="#e55326" d="M13 10h1" />
<path stroke="#e55022" d="M14 10h1" />
<path stroke="#e54d1e" d="M15 10h1" />
<path stroke="#e54d1f" d="M16 10h1" />
<path stroke="#e24e21" d="M17 10h1" />
<path stroke="#d64921" d="M18 10h1" />
<path stroke="#af3516" d="M19 10h1" />
<path stroke="#e25432" d="M1 11h1" />
<path stroke="#e5694b" d="M2 11h1" />
<path stroke="#e77054" d="M3 11h1" />
<path stroke="#e77156" d="M4 11h1" />
<path stroke="#e87055" d="M5 11h1" />
<path stroke="#e66c4d" d="M7 11h1" />
<path stroke="#e75526" d="M13 11h1" />
<path stroke="#e75221" d="M14 11h1" />
<path stroke="#e64e1c" d="M15 11h1" />
<path stroke="#e64d1c" d="M16 11h1" />
<path stroke="#e34c1c" d="M17 11h1" />
<path stroke="#d6461c" d="M18 11h1" />
<path stroke="#b03312" d="M19 11h1" />
<path stroke="#e14f2b" d="M1 12h1" />
<path stroke="#e66b4e" d="M3 12h1" />
<path stroke="#e76f53" d="M5 12h1" />
<path stroke="#e66e51" d="M6 12h1" />
<path stroke="#e7653d" d="M10 12h1" />
<path stroke="#fef5f1" d="M13 12h1" />
<path stroke="#e85421" d="M14 12h1" />
<path stroke="#e8501b" d="M15 12h1" />
<path stroke="#e74d18" d="M16 12h1" />
<path stroke="#e44a18" d="M17 12h1" />
<path stroke="#d74216" d="M18 12h1" />
<path stroke="#b2310f" d="M19 12h1" />
<path stroke="#e04b25" d="M1 13h1M2 16h1" />
<path stroke="#e35e3d" d="M2 13h1" />
<path stroke="#e56748" d="M3 13h1" />
<path stroke="#e66c4e" d="M4 13h1" />
<path stroke="#e66d50" d="M5 13h1" />
<path stroke="#e76842" d="M9 13h1" />
<path stroke="#e7653c" d="M10 13h1" />
<path stroke="#e86236" d="M11 13h1" />
<path stroke="#e95019" d="M15 13h1M14 16h1" />
<path stroke="#e84c16" d="M16 13h1" />
<path stroke="#e44713" d="M17 13h1" />
<path stroke="#d83f10" d="M18 13h1" />
<path stroke="#b12d0a" d="M19 13h1" />
<path stroke="#df451e" d="M1 14h1" />
<path stroke="#e25836" d="M2 14h1" />
<path stroke="#e46242" d="M3 14h1M4 15h1" />
<path stroke="#e56749" d="M4 14h1" />
<path stroke="#e66845" d="M8 14h1" />
<path stroke="#e76741" d="M9 14h1" />
<path stroke="#e7643b" d="M10 14h1" />
<path stroke="#e86235" d="M11 14h1" />
<path stroke="#ea5e2d" d="M12 14h1" />
<path stroke="#e94a11" d="M16 14h1M15 16h1" />
<path stroke="#e6440d" d="M17 14h1" />
<path stroke="#d73b0b" d="M18 14h1" />
<path stroke="#b12b06" d="M19 14h1" />
<path stroke="#de4018" d="M1 15h1" />
<path stroke="#e1512e" d="M2 15h1" />
<path stroke="#f5c1b5" d="M5 15h1" />
<path stroke="#e66543" d="M7 15h1" />
<path stroke="#e66541" d="M8 15h1" />
<path stroke="#e6643d" d="M9 15h1" />
<path stroke="#e76238" d="M10 15h1" />
<path stroke="#e86032" d="M11 15h1" />
<path stroke="#e95c2a" d="M12 15h1" />
<path stroke="#ea5924" d="M13 15h1" />
<path stroke="#f7b8a1" d="M15 15h1" />
<path stroke="#e9480e" d="M16 15h1" />
<path stroke="#e54009" d="M17 15h1" />
<path stroke="#d73605" d="M18 15h1" />
<path stroke="#b02702" d="M19 15h1" />
<path stroke="#dd3c14" d="M1 16h1" />
<path stroke="#e15431" d="M3 16h1" />
<path stroke="#e35b39" d="M4 16h1" />
<path stroke="#e45e3d" d="M5 16h1" />
<path stroke="#e45f3d" d="M6 16h1" />
<path stroke="#e45e3b" d="M7 16h1" />
<path stroke="#e55e39" d="M8 16h1" />
<path stroke="#e55e37" d="M9 16h1" />
<path stroke="#e65d32" d="M10 16h1" />
<path stroke="#e75b2c" d="M11 16h1" />
<path stroke="#e85725" d="M12 16h1" />
<path stroke="#e9541f" d="M13 16h1" />
<path stroke="#e8440b" d="M16 16h1" />
<path stroke="#e43d05" d="M17 16h1" />
<path stroke="#d63302" d="M18 16h1" />
<path stroke="#af2601" d="M19 16h1" />
<path stroke="#d8370e" d="M1 17h1" />
<path stroke="#db431c" d="M2 17h1" />
<path stroke="#dd4c28" d="M3 17h1" />
<path stroke="#de522f" d="M4 17h1" />
<path stroke="#df5533" d="M5 17h1" />
<path stroke="#e05734" d="M6 17h1" />
<path stroke="#e05531" d="M7 17h1" />
<path stroke="#e05631" d="M8 17h1" />
<path stroke="#e1562e" d="M9 17h1" />
<path stroke="#e2552a" d="M10 17h1" />
<path stroke="#e45325" d="M11 17h1" />
<path stroke="#e4501f" d="M12 17h1" />
<path stroke="#e54c19" d="M13 17h1" />
<path stroke="#e54813" d="M14 17h1" />
<path stroke="#e5430d" d="M15 17h1" />
<path stroke="#e43e07" d="M16 17h1" />
<path stroke="#e03802" d="M17 17h1" />
<path stroke="#d12f00" d="M18 17h1" />
<path stroke="#aa2300" d="M19 17h1" />
<path stroke="#cd4928" d="M1 18h1" />
<path stroke="#cc3813" d="M2 18h1" />
<path stroke="#cc3e1b" d="M3 18h1" />
<path stroke="#cf4421" d="M4 18h1" />
<path stroke="#cf4725" d="M5 18h1" />
<path stroke="#cf4726" d="M6 18h1" />
<path stroke="#cf4624" d="M7 18h1" />
<path stroke="#d04723" d="M8 18h1" />
<path stroke="#d14621" d="M9 18h1" />
<path stroke="#d2451e" d="M10 18h1" />
<path stroke="#d5451b" d="M11 18h1" />
<path stroke="#d54216" d="M12 18h1" />
<path stroke="#d64013" d="M13 18h1" />
<path stroke="#d53d0e" d="M14 18h1" />
<path stroke="#d63909" d="M15 18h1" />
<path stroke="#d53504" d="M16 18h1" />
<path stroke="#d13001" d="M17 18h1" />
<path stroke="#c22a00" d="M18 18h1" />
<path stroke="#ab3c1f" d="M19 18h1" />
<path stroke="#eed6d0" d="M1 19h1" />
<path stroke="#b54428" d="M2 19h1" />
<path stroke="#a62b0d" d="M3 19h1" />
<path stroke="#ac3011" d="M4 19h1" />
<path stroke="#ab3112" d="M5 19h1" />
<path stroke="#a93214" d="M6 19h1" />
<path stroke="#a93012" d="M7 19h1" />
<path stroke="#ac3213" d="M8 19h1" />
<path stroke="#ad3213" d="M9 19h1" />
<path stroke="#ae3110" d="M10 19h1" />
<path stroke="#b1300d" d="M11 19h1" />
<path stroke="#b22e0a" d="M12 19h1" />
<path stroke="#b42d08" d="M13 19h1" />
<path stroke="#b12a06" d="M14 19h1" />
<path stroke="#b12803" d="M15 19h1" />
<path stroke="#b42701" d="M16 19h1" />
<path stroke="#ae2400" d="M17 19h1" />
<path stroke="#ac3c1f" d="M18 19h1" />
<path stroke="#ead4cf" d="M19 19h1" />
</svg>