<svg xmlns="http://www.w3.org/2000/svg" viewBox="0 -0.5 21 21" shape-rendering="crispEdges">
<path stroke="#a7bdef" d="M1 0h1" />
<path stroke="#f4f6fd" d="M2 0h1M18 0h1M0 2h1M20 2h1M0 18h1M20 18h1M2 20h1M18 20h1" />
<path stroke="#ffffff" d="M3 0h15M0 3h1M20 3h1M0 4h1M20 4h1M0 5h1M20 5h1M0 6h1M20 6h1M0 7h1M20 7h1M0 8h1M20 8h1M0 9h1M20 9h1M0 10h1M20 10h1M0 11h1M20 11h1M0 12h1M20 12h1M0 13h1M20 13h1M0 14h1M20 14h1M0 15h1M20 15h1M0 16h1M20 16h1M0 17h1M20 17h1M3 20h1M9 20h9" />
<path stroke="#a7bdee" d="M19 0h1M0 1h1" />
<path stroke="#cfd3da" d="M1 1h1" />
<path stroke="#1f3b5f" d="M2 1h1M1 2h1" />
<path stroke="#002453" d="M3 1h1M1 4h1" />
<path stroke="#002557" d="M4 1h1" />
<path stroke="#002658" d="M5 1h1" />
<path stroke="#00285c" d="M6 1h1" />
<path stroke="#002a61" d="M7 1h1" />
<path stroke="#002d67" d="M8 1h1" />
<path stroke="#002f6b" d="M9 1h1" />
<path stroke="#002f6c" d="M10 1h1M1 10h1" />
<path stroke="#003273" d="M11 1h1" />
<path stroke="#003478" d="M12 1h1M5 2h1" />
<path stroke="#00357b" d="M13 1h1M2 5h1M1 13h1" />
<path stroke="#00377f" d="M14 1h1M6 2h1" />
<path stroke="#003780" d="M15 1h1" />
<path stroke="#003984" d="M16 1h1" />
<path stroke="#003882" d="M17 1h1M3 3h1" />
<path stroke="#1f5295" d="M18 1h1" />
<path stroke="#cfdae9" d="M19 1h1" />
<path stroke="#a7bcee" d="M20 1h1" />
<path stroke="#002a62" d="M2 2h1" />
<path stroke="#003070" d="M3 2h1" />
<path stroke="#003275" d="M4 2h1" />
<path stroke="#003883" d="M7 2h1M1 17h1" />
<path stroke="#003a88" d="M8 2h1" />
<path stroke="#003d8f" d="M9 2h1M2 9h1" />
<path stroke="#003e90" d="M10 2h1" />
<path stroke="#004094" d="M11 2h1" />
<path stroke="#004299" d="M12 2h1M2 12h1" />
<path stroke="#00439b" d="M13 2h1" />
<path stroke="#00449e" d="M14 2h1M2 14h1" />
<path stroke="#00459f" d="M15 2h1" />
<path stroke="#0045a1" d="M16 2h1M18 2h1M2 17h1" />
<path stroke="#0045a0" d="M17 2h1M2 15h1" />
<path stroke="#1f5aa8" d="M19 2h1" />
<path stroke="#002452" d="M1 3h1" />
<path stroke="#003170" d="M2 3h1" />
<path stroke="#003b8b" d="M4 3h1M3 4h1" />
<path stroke="#003c8f" d="M5 3h1" />
<path stroke="#003e94" d="M6 3h1" />
<path stroke="#004099" d="M7 3h1" />
<path stroke="#00429d" d="M8 3h1" />
<path stroke="#0044a2" d="M9 3h1" />
<path stroke="#0046a5" d="M10 3h1" />
<path stroke="#0048a8" d="M11 3h1" />
<path stroke="#0049ab" d="M12 3h1" />
<path stroke="#004aac" d="M13 3h1" />
<path stroke="#004aad" d="M14 3h1" />
<path stroke="#004bae" d="M15 3h2M18 3h1M3 14h1M3 15h1M3 16h1" />
<path stroke="#004baf" d="M17 3h1M7 10h1M3 17h1M3 18h1" />
<path stroke="#004bad" d="M19 3h1M3 13h1M3 19h1" />
<path stroke="#003377" d="M2 4h1M1 12h1" />
<path stroke="#003d92" d="M4 4h1" />
<path stroke="#003f97" d="M5 4h1M4 5h1" />
<path stroke="#00419d" d="M6 4h1M4 6h1" />
<path stroke="#0a4aa5" d="M7 4h1" />
<path stroke="#4e7ec0" d="M8 4h1" />
<path stroke="#789ed1" d="M9 4h1" />
<path stroke="#789ed3" d="M10 4h1" />
<path stroke="#789fd4" d="M11 4h1M12 5h1" />
<path stroke="#5184c7" d="M12 4h1" />
<path stroke="#0b54b3" d="M13 4h1M14 5h1" />
<path stroke="#004db1" d="M14 4h3M15 5h2M15 6h2M7 12h1M6 13h1M4 14h3M4 15h2M4 16h2" />
<path stroke="#004db2" d="M17 4h3M17 5h3M18 6h2M19 7h1M11 8h1M8 11h1M4 17h2M4 18h4M4 19h4" />
<path stroke="#002555" d="M1 5h1" />
<path stroke="#003d90" d="M3 5h1" />
<path stroke="#00409c" d="M5 5h1" />
<path stroke="#0949a4" d="M6 5h1" />
<path stroke="#668ec8" d="M7 5h1" />
<path stroke="#789dd1" d="M8 5h1M7 6h1" />
<path stroke="#497cc1" d="M9 5h1" />
<path stroke="#4178c0" d="M10 5h1" />
<path stroke="#608dcb" d="M11 5h1" />
<path stroke="#6693cf" d="M13 5h1" />
<path stroke="#00275a" d="M1 6h1" />
<path stroke="#003781" d="M2 6h1M1 15h1" />
<path stroke="#003f95" d="M3 6h1" />
<path stroke="#0042a1" d="M5 6h1" />
<path stroke="#4073bb" d="M6 6h1" />
<path stroke="#2661b6" d="M8 6h1" />
<path stroke="#0047ac" d="M9 6h1" />
<path stroke="#0049ad" d="M10 6h1M5 11h1" />
<path stroke="#004aae" d="M11 6h1M6 11h1M4 12h2" />
<path stroke="#4077c4" d="M12 6h1" />
<path stroke="#78a1d6" d="M13 6h1" />
<path stroke="#4079c4" d="M14 6h1" />
<path stroke="#004eb3" d="M17 6h1M18 7h1M19 8h1M10 9h1M9 10h1M7 16h1M6 17h2M8 19h1" />
<path stroke="#00295f" d="M1 7h1" />
<path stroke="#003985" d="M2 7h1" />
<path stroke="#00419b" d="M3 7h1" />
<path stroke="#0043a2" d="M4 7h1" />
<path stroke="#0044a6" d="M5 7h1" />
<path stroke="#5684c6" d="M6 7h1" />
<path stroke="#5686c8" d="M7 7h1" />
<path stroke="#0049ac" d="M8 7h1M5 10h1M4 11h1M3 12h1" />
<path stroke="#0049ae" d="M9 7h1M7 8h2M6 10h1" />
<path stroke="#004aaf" d="M10 7h1M9 8h1M7 9h1" />
<path stroke="#004cb1" d="M11 7h1M10 8h1M9 9h1M8 10h1" />
<path stroke="#0a53b5" d="M12 7h1" />
<path stroke="#78a1d7" d="M13 7h1" />
<path stroke="#4881c8" d="M14 7h1" />
<path stroke="#004fb4" d="M15 7h3M18 8h1M19 9h1M8 12h1M7 15h1M8 18h1M9 19h1" />
<path stroke="#002b63" d="M1 8h1" />
<path stroke="#003b8a" d="M2 8h1" />
<path stroke="#00439f" d="M3 8h1" />
<path stroke="#0045a5" d="M4 8h1" />
<path stroke="#0046a8" d="M5 8h1" />
<path stroke="#0047ab" d="M6 8h1M5 9h1" />
<path stroke="#145db9" d="M12 8h1" />
<path stroke="#78a2d8" d="M13 8h1" />
<path stroke="#457fc8" d="M14 8h1" />
<path stroke="#0051b6" d="M15 8h1M18 9h1M19 11h1M19 12h1M8 14h1M8 15h1M19 17h1M9 18h1M11 19h1" />
<path stroke="#0050b5" d="M16 8h2M19 10h1M8 13h1M8 16h1M8 17h1M10 19h1" />
<path stroke="#002d68" d="M1 9h1" />
<path stroke="#0045a3" d="M3 9h1" />
<path stroke="#0047a8" d="M4 9h1" />
<path stroke="#0048ad" d="M6 9h1" />
<path stroke="#004bb0" d="M8 9h1M6 12h1M5 13h1" />
<path stroke="#1b62bd" d="M11 9h1" />
<path stroke="#6899d4" d="M12 9h1" />
<path stroke="#78a4d9" d="M13 9h1" />
<path stroke="#1f68c1" d="M14 9h1" />
<path stroke="#0054b9" d="M15 9h1M9 14h1M18 18h1M15 19h1" />
<path stroke="#0053b8" d="M16 9h2M18 10h1M19 14h1M19 16h1M9 17h1M10 18h1M14 19h1M16 19h1" />
<path stroke="#003f93" d="M2 10h1" />
<path stroke="#0047a7" d="M3 10h1" />
<path stroke="#0048ab" d="M4 10h1" />
<path stroke="#407cc7" d="M10 10h1" />
<path stroke="#78a3d9" d="M11 10h1M10 11h1" />
<path stroke="#78a5da" d="M12 10h1M10 12h1" />
<path stroke="#256ec4" d="M13 10h1" />
<path stroke="#0057bb" d="M14 10h1" />
<path stroke="#0057bc" d="M15 10h1M11 12h1M10 14h1M18 17h1M12 18h1M17 18h1" />
<path stroke="#0056bb" d="M16 10h1M18 12h1" />
<path stroke="#0055ba" d="M17 10h1M18 11h1M10 17h1M11 18h1" />
<path stroke="#003172" d="M1 11h1" />
<path stroke="#004095" d="M2 11h1" />
<path stroke="#0048aa" d="M3 11h1" />
<path stroke="#004cb0" d="M7 11h1M4 13h1" />
<path stroke="#3272c4" d="M9 11h1" />
<path stroke="#538cd0" d="M11 11h1" />
<path stroke="#065cbf" d="M12 11h1" />
<path stroke="#0059be" d="M13 11h1M16 11h1M11 13h1M11 16h1M18 16h1M14 18h1M16 18h1" />
<path stroke="#005abf" d="M14 11h2M12 12h1M17 12h1M11 14h1M11 15h1M12 17h1M15 18h1" />
<path stroke="#0058bd" d="M17 11h1M18 13h1M13 18h1" />
<path stroke="#538ace" d="M9 12h1" />
<path stroke="#005cc1" d="M13 12h1M16 12h1M12 13h1M17 13h1M13 17h1" />
<path stroke="#005dc2" d="M14 12h1M12 14h1M17 14h1M12 15h1M17 16h1M14 17h1M16 17h1" />
<path stroke="#005ec3" d="M15 12h1M13 13h1M16 13h1M17 15h1M13 16h1M15 17h1" />
<path stroke="#00449d" d="M2 13h1" />
<path stroke="#004eb2" d="M7 13h1M6 15h1M6 16h1" />
<path stroke="#4581cb" d="M9 13h1" />
<path stroke="#6297d5" d="M10 13h1" />
<path stroke="#005fc4" d="M14 13h1M13 14h1M16 14h1M13 15h1" />
<path stroke="#0060c5" d="M15 13h1M14 14h1M16 15h1M15 16h1" />
<path stroke="#0052b7" d="M19 13h1M12 19h2M17 19h1" />
<path stroke="#00367e" d="M1 14h1" />
<path stroke="#004fb3" d="M7 14h1" />
<path stroke="#0061c6" d="M15 14h1M14 15h1" />
<path stroke="#0059bd" d="M18 14h1" />
<path stroke="#407fca" d="M9 15h1" />
<path stroke="#78a6dc" d="M10 15h1" />
<path stroke="#0062c6" d="M15 15h1" />
<path stroke="#005abe" d="M18 15h1" />
<path stroke="#0054b8" d="M19 15h1" />
<path stroke="#003881" d="M1 16h1" />
<path stroke="#0046a1" d="M2 16h1" />
<path stroke="#6c9bd5" d="M9 16h1" />
<path stroke="#78a6db" d="M10 16h1" />
<path stroke="#005cc0" d="M12 16h1" />
<path stroke="#005fc3" d="M14 16h1" />
<path stroke="#0060c4" d="M16 16h1" />
<path stroke="#0058bc" d="M11 17h1" />
<path stroke="#005bc0" d="M17 17h1" />
<path stroke="#1f5294" d="M1 18h1" />
<path stroke="#0046a2" d="M2 18h1" />
<path stroke="#1f66be" d="M19 18h1" />
<path stroke="#a7bef0" d="M0 19h1M20 19h1M1 20h1" />
<path stroke="#cfdae8" d="M1 19h1" />
<path stroke="#1f5ba9" d="M2 19h1" />
<path stroke="#1f66bf" d="M18 19h1" />
<path stroke="#cfdef1" d="M19 19h1" />
<path stroke="#fefefe" d="M4 20h1M8 20h1" />
<path stroke="#fdfdfd" d="M5 20h1M7 20h1" />
<path stroke="#fcfcfc" d="M6 20h1" />
<path stroke="#a7bdf0" d="M19 20h1" />
</svg>