<svg xmlns="http://www.w3.org/2000/svg" viewBox="0 -0.5 11 21" shape-rendering="crispEdges">
<path stroke="#becbd3" d="M1 0h1M0 1h1" />
<path stroke="#b6c5cd" d="M2 0h1M0 2h1" />
<path stroke="#b5c4cd" d="M3 0h5M0 3h1M0 4h1M0 5h1M0 6h1M0 7h1M0 8h1M0 9h1M0 10h1M0 11h1M0 12h1M0 13h1" />
<path stroke="#afbfc8" d="M8 0h1M0 14h1" />
<path stroke="#9fb2be" d="M9 0h1M0 15h1" />
<path stroke="#a6d1b1" d="M1 1h1" />
<path stroke="#6fd16e" d="M2 1h1M1 2h1" />
<path stroke="#67ce65" d="M3 1h1M1 3h1" />
<path stroke="#66ce64" d="M4 1h3" />
<path stroke="#62cd61" d="M7 1h1" />
<path stroke="#45c343" d="M8 1h1M7 2h1" />
<path stroke="#63ac76" d="M9 1h1M2 16h1M3 17h1M4 18h1" />
<path stroke="#879aa6" d="M10 1h1" />
<path stroke="#63cd62" d="M2 2h1" />
<path stroke="#49c547" d="M3 2h1M2 3h1" />
<path stroke="#47c446" d="M4 2h3" />
<path stroke="#21b71f" d="M8 2h1" />
<path stroke="#1da41c" d="M9 2h1" />
<path stroke="#7d8e99" d="M10 2h1" />
<path stroke="#25b923" d="M3 3h1" />
<path stroke="#21b81f" d="M4 3h4M2 15h1" />
<path stroke="#1ea71c" d="M8 3h1" />
<path stroke="#1b9619" d="M9 3h1" />
<path stroke="#778892" d="M10 3h1M10 4h1M10 5h1M10 6h1M10 7h1M10 8h1M10 9h1M10 10h1M10 11h1M10 12h1M10 13h1" />
<path stroke="#f7f7f4" d="M1 4h1M1 5h1M1 6h1M1 7h1M1 8h1M1 9h1M1 10h1M1 11h1M1 12h1M1 13h1" />
<path stroke="#f5f5f2" d="M2 4h1M2 5h1M2 6h1M2 7h1M2 8h1M2 9h1M2 10h1M2 11h1M2 12h1M2 13h1" />
<path stroke="#f3f3ef" d="M3 4h5M3 5h5M3 6h5M3 7h5M3 8h5M3 9h5M3 10h5M3 11h5M3 12h5M3 13h4M3 14h3M4 15h1" />
<path stroke="#dcdcd9" d="M8 4h1M8 5h1M8 6h1M8 7h1M8 8h1M8 9h1M8 10h1M8 11h1M8 12h1" />
<path stroke="#c3c3c0" d="M9 4h1M9 5h1M9 6h1M9 7h1M9 8h1M9 9h1M9 10h1M9 11h1M9 12h1" />
<path stroke="#f1f1ed" d="M7 13h1M6 14h1M5 15h1" />
<path stroke="#dbdbd8" d="M8 13h1" />
<path stroke="#c4c4c1" d="M9 13h1" />
<path stroke="#4bc549" d="M1 14h1" />
<path stroke="#f4f4f1" d="M2 14h1" />
<path stroke="#e6e6e2" d="M7 14h1M6 15h1" />
<path stroke="#cececa" d="M8 14h1" />
<path stroke="#1a9319" d="M9 14h1" />
<path stroke="#788993" d="M10 14h1" />
<path stroke="#69b17b" d="M1 15h1" />
<path stroke="#f2f2ee" d="M3 15h1M4 16h1" />
<path stroke="#d0d0cc" d="M7 15h1M6 16h1" />
<path stroke="#1a9118" d="M8 15h1M7 16h1M6 17h1" />
<path stroke="#4c845a" d="M9 15h1" />
<path stroke="#72838d" d="M10 15h1" />
<path stroke="#91a6b2" d="M1 16h1M2 17h1M3 18h1M4 19h1" />
<path stroke="#21b61f" d="M3 16h1M4 17h1" />
<path stroke="#e7e7e3" d="M5 16h1" />
<path stroke="#4b8259" d="M8 16h1M7 17h1M6 18h1" />
<path stroke="#6e7e88" d="M9 16h1M8 17h1M7 18h1M6 19h1" />
<path stroke="#d7d7d4" d="M5 17h1" />
<path stroke="#1da21b" d="M5 18h1" />
<path stroke="#589868" d="M5 19h1" />
<path stroke="#80929e" d="M5 20h1" />
</svg>