<svg xmlns="http://www.w3.org/2000/svg" viewBox="0 -0.5 11 22" shape-rendering="crispEdges">
<path stroke="#f2f1e7" d="M0 0h1M10 0h1M0 21h1M10 21h1" />
<path stroke="#879aa6" d="M1 0h1M10 20h1" />
<path stroke="#7d8e99" d="M2 0h1M10 19h1" />
<path stroke="#778892" d="M3 0h5M10 3h1M10 4h1M10 5h1M10 6h1M10 7h1M10 8h1M10 9h1M10 10h1M10 11h1M10 12h1M10 13h1M10 14h1M10 15h1M10 16h1M10 17h1M10 18h1" />
<path stroke="#788993" d="M8 0h1M10 2h1" />
<path stroke="#72838d" d="M9 0h1M10 1h1" />
<path stroke="#9fb2be" d="M0 1h1M9 21h1" />
<path stroke="#63af76" d="M1 1h1M9 20h1" />
<path stroke="#1eab1c" d="M2 1h1M9 19h1" />
<path stroke="#1c9d1a" d="M3 1h1" />
<path stroke="#1b9a1a" d="M4 1h3M8 1h1M9 2h1" />
<path stroke="#1b9b1a" d="M7 1h1" />
<path stroke="#4d875b" d="M9 1h1" />
<path stroke="#afbfc8" d="M0 2h1M8 21h1" />
<path stroke="#46ca44" d="M1 2h1M7 19h1M8 20h1" />
<path stroke="#22be20" d="M2 2h1M8 19h1" />
<path stroke="#1faf1d" d="M3 2h1" />
<path stroke="#1fae1d" d="M4 2h3" />
<path stroke="#1fad1d" d="M7 2h1" />
<path stroke="#1da11b" d="M8 2h1" />
<path stroke="#b5c4cd" d="M0 3h1M0 4h1M0 5h1M0 6h1M0 7h1M0 8h1M0 9h1M0 10h1M0 11h1M0 12h1M0 13h1M0 14h1M0 15h1M0 16h1M0 17h1M0 18h1M3 21h5" />
<path stroke="#f7f7f4" d="M1 3h1M1 4h1M1 5h1M1 6h1M1 7h1M1 8h1M1 9h1M1 10h1M1 11h1M1 12h1M1 13h1M1 14h1M1 15h1M1 16h1M1 17h1M1 18h1" />
<path stroke="#f5f5f2" d="M2 3h1M2 4h1M2 5h1M2 6h1M2 7h1M2 8h1M2 9h1M2 10h1M2 11h1M2 12h1M2 13h1M2 14h1M2 15h1M2 16h1M2 17h1M2 18h1" />
<path stroke="#f3f3ef" d="M3 3h4M3 4h5M3 5h5M3 6h5M3 7h5M3 8h5M3 9h5M3 10h5M3 11h5M3 12h5M3 13h5M3 14h5M3 15h5M3 16h5M3 17h5M3 18h5" />
<path stroke="#f1f1ed" d="M7 3h1" />
<path stroke="#dbdbd8" d="M8 3h1" />
<path stroke="#c4c4c1" d="M9 3h1" />
<path stroke="#ddddd9" d="M8 4h1M8 18h1" />
<path stroke="#c6c6c3" d="M9 4h1M9 18h1" />
<path stroke="#dcdcd9" d="M8 5h1M8 6h1M8 7h1M8 8h1M8 9h1M8 10h1M8 11h1M8 12h1M8 13h1M8 14h1M8 15h1M8 16h1M8 17h1" />
<path stroke="#c3c3c0" d="M9 5h1M9 6h1M9 7h1M9 8h1M9 9h1M9 10h1M9 11h1M9 12h1M9 13h1M9 14h1M9 15h1M9 16h1M9 17h1" />
<path stroke="#b6c5cd" d="M0 19h1M2 21h1" />
<path stroke="#70d66f" d="M1 19h1M2 20h1" />
<path stroke="#64d362" d="M2 19h1" />
<path stroke="#4acb48" d="M3 19h1" />
<path stroke="#48cb46" d="M4 19h3" />
<path stroke="#becbd3" d="M0 20h1M1 21h1" />
<path stroke="#a6d2b1" d="M1 20h1" />
<path stroke="#67d466" d="M3 20h1" />
<path stroke="#66d465" d="M4 20h3" />
<path stroke="#63d362" d="M7 20h1" />
</svg>