<svg xmlns="http://www.w3.org/2000/svg" viewBox="0 -0.5 5 5" shape-rendering="crispEdges">
<path stroke="#e8e6da" d="M1 0h1M0 1h1" />
<path stroke="#d2ceb5" d="M2 0h1M0 2h1" />
<path stroke="#e5e3d4" d="M3 0h1M0 3h1" />
<path stroke="#d7d3bd" d="M1 1h1" />
<path stroke="#d0ccb2" d="M2 1h1M1 2h1" />
<path stroke="#c7c2a2" d="M3 1h1M1 3h1" />
<path stroke="#e2dfd0" d="M4 1h1M1 4h1" />
<path stroke="#cdc8ac" d="M2 2h1" />
<path stroke="#c5bf9f" d="M3 2h1M2 3h1" />
<path stroke="#c3bd9c" d="M4 2h1" />
<path stroke="#bfb995" d="M3 3h1" />
<path stroke="#e2dfcf" d="M4 3h1M3 4h1" />
<path stroke="#c4be9d" d="M2 4h1" />
</svg>