<svg xmlns="http://www.w3.org/2000/svg" viewBox="0 -0.5 8 7" shape-rendering="crispEdges">
<path stroke="#eef4fe" d="M0 0h1M2 0h1M4 0h1M6 0h1M0 1h1M2 1h1M4 1h1M6 1h1M0 2h1M2 2h1M4 2h1M6 2h1M0 3h1M2 3h1M4 3h1M6 3h1M0 4h1M2 4h1M4 4h1M6 4h1M0 5h1M2 5h1M4 5h1M6 5h1" />
<path stroke="#c8d6fb" d="M1 0h1M3 0h1M5 0h1M7 0h1" />
<path stroke="#8cb0f8" d="M1 1h1M3 1h1M5 1h1M7 1h1M1 2h1M3 2h1M5 2h1M7 2h1M1 3h1M3 3h1M5 3h1M7 3h1M1 4h1M3 4h1M5 4h1M7 4h1M1 5h1M3 5h1M5 5h1M7 5h1M1 6h1M3 6h1M5 6h1M7 6h1" />
<path stroke="#bad1fc" d="M0 6h1M2 6h1" />
<path stroke="#bad3fc" d="M4 6h1M6 6h1" />
</svg>