<svg xmlns="http://www.w3.org/2000/svg" viewBox="0 -0.5 17 10" shape-rendering="crispEdges">
<path stroke="#eeede5" d="M0 0h1M0 1h1M0 2h1M0 3h1M0 4h1M0 5h1M0 6h1M0 7h1M0 8h1M0 9h1" />
<path stroke="#ffffff" d="M1 0h1M15 0h1M1 1h1M15 1h1M1 2h1M15 2h1M1 3h1M15 3h1M1 4h1M15 4h1M1 5h1M15 5h1M1 6h1M15 6h1M1 7h1M15 7h1M1 8h1M15 8h1M1 9h1M15 9h1" />
<path stroke="#b7caf5" d="M2 0h1M2 1h1M2 2h1M2 3h1M2 4h1M2 5h1" />
<path stroke="#c8d6fb" d="M3 0h1M5 0h1M3 1h1M3 2h1M5 2h1M3 3h1M3 4h1M5 4h1M3 5h1M4 6h2M4 7h1M4 8h2M4 9h2" />
<path stroke="#c8d8fb" d="M4 0h1M4 1h1M4 2h1M4 3h1M4 4h1M4 5h1" />
<path stroke="#c6d6fd" d="M6 0h2" />
<path stroke="#c3d5fd" d="M8 0h1" />
<path stroke="#c2d3fc" d="M9 0h2" />
<path stroke="#bad1fc" d="M11 0h1M11 1h1M11 3h1M11 5h1" />
<path stroke="#b6cefb" d="M12 0h1M12 1h1M12 2h1M12 3h1M12 4h1M12 5h1" />
<path stroke="#b6cdfb" d="M13 0h1M13 1h1M13 2h1M13 3h1M13 4h1M13 5h1" />
<path stroke="#b9cbf3" d="M14 0h1M14 1h1M14 2h1M14 3h1M14 4h1M14 5h1" />
<path stroke="#9fb5d2" d="M16 0h1M16 1h1M16 2h1M16 3h1M16 4h1M16 5h1M16 6h1M16 7h1M16 8h1M16 9h1" />
<path stroke="#eef4fe" d="M5 1h6M5 3h6M5 5h6M5 7h6" />
<path stroke="#8cb0f8" d="M6 2h6M6 4h6M6 6h6M6 8h6" />
<path stroke="#b4c8f6" d="M2 6h1M2 7h1M2 8h1M2 9h1" />
<path stroke="#c5d5fc" d="M3 6h1M3 7h1M3 8h1M3 9h1M8 9h1" />
<path stroke="#b3cffc" d="M12 6h1M12 7h1M12 8h1M12 9h1" />
<path stroke="#b5cdfa" d="M13 6h1M13 7h1M13 8h1M13 9h1" />
<path stroke="#b5c9f3" d="M14 6h1M14 7h1M14 8h1M14 9h1" />
<path stroke="#bad3fc" d="M11 7h1M11 9h1" />
<path stroke="#c5d6fc" d="M6 9h2" />
<path stroke="#c2d5fc" d="M9 9h2" />
</svg>